<svg id="Icon_-_Heart" data-name="Icon - Heart" xmlns="http://www.w3.org/2000/svg" width="26" height="26" viewBox="0 0 26 26">
  <rect id="Square" width="26" height="26" fill="none"/>
  <path id="Icon_-_Heart-2" data-name="Icon - Heart" d="M2545.893-1077.406c-3.589-1.366-6.361.93-8.646,3.384a19.632,19.632,0,0,0-3.024-2.792,6.314,6.314,0,0,0-4.11-.9c-2.7.179-4.4,2.5-5.393,4.831-1.257,2.961.181,5.855,2.079,8.16a71.755,71.755,0,0,0,7.6,7.528,4.379,4.379,0,0,0,4.261.863c1.707-.6,3.121-2.38,4.389-3.6,2.7-2.586,6.436-5.633,7.124-9.52C2550.67-1072.283,2548.681-1076.346,2545.893-1077.406Zm2.4,8.387c-.9,2.667-3.256,4.724-5.2,6.65q-1.526,1.508-3.106,2.961c-1.267,1.164-2.729,2.3-4.375,1-1.971-1.769-3.89-3.6-5.734-5.5-1.726-1.78-3.977-4-3.94-6.673.03-2.125,1.934-5.181,4.178-5.418,2.918-.309,4.74,1.865,6.526,3.857a.864.864,0,0,0,1.214,0c1.852-2.067,3.989-4.542,7.073-3.78a4.67,4.67,0,0,1,2.593,2.463A5,5,0,0,1,2548.294-1069.019Z" transform="translate(-2524.246 1078.814)" fill="#7b868a"/>
</svg>
