<svg id="Icon_-_Home" data-name="Icon - Home" xmlns="http://www.w3.org/2000/svg" width="25" height="24" viewBox="0 0 25 24">
  <rect id="Square" width="25" height="24" fill="none"/>
  <path id="Icon_-_Home-2" data-name="Icon - Home" d="M2102.847-2476.16l-11.62-9a.86.86,0,0,0-.588-.184.865.865,0,0,0-.59.184l-11.619,9c-.847.656.34,1.827,1.178,1.179l1.1-.854c-.033,3.533-.048,7.067-.085,10.6a.792.792,0,0,0,.125.451.7.7,0,0,0,.708.382c2.283-.142,4.571-.088,6.855-.195a.854.854,0,0,0,.268-.058.68.68,0,0,0,.565-.775c-.213-2.342-.329-4.7-.322-7.058,1.2-.047,2.426-.072,3.629-.016.008,2.359-.108,4.726-.322,7.074a.681.681,0,0,0,.562.775.883.883,0,0,0,.271.058c2.284.106,4.573.053,6.855.195a.7.7,0,0,0,.705-.376.791.791,0,0,0,.128-.457c-.038-3.534-.052-7.068-.085-10.6l1.1.854C2102.507-2474.333,2103.694-2475.5,2102.847-2476.16Zm-3.868,10.049c-1.706-.074-3.413-.064-5.119-.117.192-2.345.3-4.705.258-7.056a.766.766,0,0,0-.47-.723.87.87,0,0,0-.363-.11,42.241,42.241,0,0,0-5.295,0,.827.827,0,0,0-.435.141h0c-.02.014-.042.027-.061.042a.766.766,0,0,0-.336.649c-.037,2.351.066,4.711.258,7.056-1.706.053-3.413.043-5.119.117.034-3.562.048-7.124.086-10.686a.847.847,0,0,0-.05-.3l8.3-6.43,8.3,6.43a.83.83,0,0,0-.051.3C2098.931-2473.234,2098.945-2469.672,2098.979-2466.11Z" transform="translate(-2078.138 2486.341)" fill="#fff"/>
</svg>
