<svg xmlns="http://www.w3.org/2000/svg" xmlns:xlink="http://www.w3.org/1999/xlink" width="25" height="25" viewBox="0 0 25 25">
  <defs>
    <clipPath id="clip-path">
      <rect width="25" height="25" fill="none"/>
    </clipPath>
  </defs>
  <g id="Icon_-_Setting" data-name="Icon - Setting" clip-path="url(#clip-path)">
    <rect id="Square" width="24" height="24" fill="none"/>
    <path id="Icon_-_Setting-2" data-name="Icon - Setting" d="M9.141,23.976c-.624-.557-.55-1.82-.5-2.75l-.19-.078c-.62.692-1.476,1.649-2.3,1.59-.96-.07-1.957-1.262-2.593-1.89-.657-.649-1.663-1.4-1.606-2.44.054-.981.968-1.83,1.68-2.534-.01-.03-.021-.06-.031-.09A4.687,4.687,0,0,1,.7,15.238C-.116,14.583.018,13.45.021,12.52s-.2-2.744.565-3.465c.615-.582,1.98-.487,2.979-.418l.02-.069c-.738-.737-1.664-1.6-1.612-2.658.048-.967.947-1.634,1.584-2.263.622-.615,1.724-1.932,2.7-1.9.754.021,1.539.895,2.117,1.533.088-.032.177-.068.265-.1C8.592,2.232,8.536.991,9.224.454A4.8,4.8,0,0,1,11.975.009c.2,0,.386.009.547.009.93,0,2.063-.138,2.718.674a4.161,4.161,0,0,1,.531,2.6c.108.043.218.087.325.131.7-.694,1.5-1.5,2.492-1.455.967.047,1.634.946,2.263,1.584.615.622,1.932,1.724,1.9,2.7-.022.781-.947,1.607-1.621,2.209.026.059.052.117.077.175.948-.05,2.2-.121,2.78.566a.72.72,0,0,1,.248.441c.256,1.343.63,3.567.08,4.884-.475,1.139-1.731,1.2-2.836,1.22-.056.153-.113.306-.176.455.639.584,1.49,1.368,1.434,2.142-.07.96-1.263,1.957-1.89,2.593-.649.658-1.4,1.663-2.44,1.605a3.913,3.913,0,0,1-2.262-1.429c-.126.048-.253.1-.38.143a3.907,3.907,0,0,1-.592,2.626c-.658.73-1.774.594-2.654.591-.162,0-.347,0-.548.009s-.389.009-.6.009A3.541,3.541,0,0,1,9.141,23.976Zm3.175-1.142c.554,0,1.47.19,1.748-.462a5.848,5.848,0,0,0,.07-1.7.847.847,0,0,1,.6-.791,14.744,14.744,0,0,0,1.39-.506.808.808,0,0,1,.8.211c.426.394,1.162,1.353,1.861,1.1.323-.116.811-.8,1.05-1.051.3-.311,1.15-.961,1.09-1.409-.043-.326-.943-1-1.177-1.229A.85.85,0,0,1,19.621,16a9.175,9.175,0,0,0,.485-1.276.845.845,0,0,1,.791-.6c.128-.005.27,0,.415,0a3.239,3.239,0,0,0,.89-.055c.671-.183.54-.49.634-1a8.669,8.669,0,0,0-.146-2.8c-.292-.038-1.879.036-2.016.037a.849.849,0,0,1-.792-.6,10.2,10.2,0,0,0-.454-1.02.843.843,0,0,1,.128-.994c.269-.264,1.284-1.008,1.336-1.38.073-.515-.716-1.095-1.057-1.446-.239-.246-.728-.936-1.05-1.051-.715-.256-1.495.763-1.929,1.166a.858.858,0,0,1-.995.128,7.011,7.011,0,0,0-1.124-.45.849.849,0,0,1-.6-.791c-.023-.593.135-1.545-.306-1.972-.374-.363-1-.234-1.514-.231-.086,0-.211-.006-.357-.011-.543-.022-1.385-.045-1.62.271-.222.3-.037,1.472-.034,1.848a.839.839,0,0,1-.6.792,13.077,13.077,0,0,0-1.336.466.8.8,0,0,1-.8-.212c-.244-.246-.94-1.186-1.282-1.232-.473-.064-1.1.764-1.423,1.079-.246.239-.935.727-1.051,1.05-.266.742.857,1.6,1.274,2.046a.828.828,0,0,1,.211.8c-.12.384-.221.762-.311,1.154a.829.829,0,0,1-.791.6c-.5-.01-1.861-.26-2.281.024-.4.273-.249,1.528-.253,1.975,0,.71-.2,1.51.635,1.758a4.391,4.391,0,0,0,1.3.082c.216-.007.425-.014.612-.007a.841.841,0,0,1,.792.6c.1.383.22.748.358,1.12a.817.817,0,0,1-.211.8c-.425.458-1.61,1.358-1.339,2.116.116.323.805.812,1.051,1.05.346.336.935,1.132,1.442,1.062.366-.051,1.1-1.05,1.36-1.314a.846.846,0,0,1,.994-.129A5.828,5.828,0,0,0,9.7,19.88a.844.844,0,0,1,.6.791c-.005.557-.183,1.664.243,1.994a2.38,2.38,0,0,0,1.37.182c.14-.007.27-.013.377-.013Zm-3.05-7.406A5.163,5.163,0,0,1,9.08,9.123c1.6-1.942,4.895-1.754,6.577-.041a4.6,4.6,0,0,1,.25,6.186.8.8,0,0,1-.169.2.826.826,0,0,1-.205.162,5.249,5.249,0,0,1-3.179,1.108A4.13,4.13,0,0,1,9.265,15.428Zm.842-4.864a3.5,3.5,0,0,0,.449,3.847,3.062,3.062,0,0,0,4.022-.1c2.065-2.259-.328-5-2.464-5A2.21,2.21,0,0,0,10.108,10.564Z" transform="translate(0 0)" fill="#7b868a" stroke="rgba(0,0,0,0)" stroke-width="1"/>
  </g>
</svg>
