<svg xmlns="http://www.w3.org/2000/svg" xmlns:xlink="http://www.w3.org/1999/xlink" width="16" height="17" viewBox="0 0 16 17">
  <defs>
    <clipPath id="clip-path">
      <rect width="16" height="17" fill="none"/>
    </clipPath>
  </defs>
  <g id="Icon_-_Share" data-name="Icon - Share" clip-path="url(#clip-path)">
    <rect id="Square" width="17" height="17" transform="translate(0 0)" fill="none"/>
    <path id="Icon_-_Share-2" data-name="Icon - Share" d="M2241.063-1938.959c-.271-2.548-3.374-3.046-5.1-1.8a12.863,12.863,0,0,0-3.253-1.473,4.321,4.321,0,0,0,.4-1.449.591.591,0,0,0,.016-.164.566.566,0,0,0-.019-.183,2.868,2.868,0,0,0-.2-.806c1.052-.724,2.181-1.365,3.274-2.036a3.117,3.117,0,0,0,2.228.8,3.261,3.261,0,0,0,3-3.219.589.589,0,0,0,.016-.164.566.566,0,0,0-.019-.183c-.393-3.685-6.716-3.083-6.217.873a3.071,3.071,0,0,0,.309,1c-1.071.653-2.171,1.281-3.2,1.99a.512.512,0,0,0-.042.036c-1.809-1.6-5.767-.577-5.368,2.584a3.09,3.09,0,0,0,3.223,2.692,2.874,2.874,0,0,0,1.929-.823,14.047,14.047,0,0,1,3.157,1.351,2.844,2.844,0,0,0-.349,1.851,3.09,3.09,0,0,0,3.223,2.692,3.262,3.262,0,0,0,3-3.219.58.58,0,0,0,.016-.164A.544.544,0,0,0,2241.063-1938.959Zm-.765-10.5a2.168,2.168,0,0,1-1.89,2.26,1.968,1.968,0,0,1-2.09-1.55C2235.778-1951.4,2240.178-1951.837,2240.3-1949.458Zm-10.189,7.871a1.968,1.968,0,0,1-2.09-1.55c-.54-2.654,3.86-3.088,3.98-.71A2.167,2.167,0,0,1,2230.109-1941.588Zm7.96,5.071a1.967,1.967,0,0,1-2.089-1.55c-.54-2.654,3.859-3.088,3.98-.71A2.168,2.168,0,0,1,2238.069-1936.517Z" transform="translate(-2226.189 1952.097)" fill="#fff"/>
  </g>
</svg>
